
<svg width="640" height="195" viewBox="0 0 640 195" fill="none" xmlns="http://www.w3.org/2000/svg">
<path d="M299.201 156H254.071V38.708H298.742C310.808 38.708 321.231 41.0561 330.013 45.7524C338.832 50.4104 345.629 57.1303 350.401 65.9119C355.212 74.6554 357.618 85.1361 357.618 97.354C357.618 109.572 355.231 120.072 350.459 128.853C345.686 137.597 338.928 144.317 330.184 149.013C321.441 153.671 311.113 156 299.201 156ZM285.914 128.968H298.055C303.859 128.968 308.803 128.032 312.888 126.162C317.012 124.291 320.143 121.064 322.281 116.483C324.457 111.901 325.545 105.525 325.545 97.354C325.545 89.1832 324.438 82.807 322.224 78.2253C320.047 73.6436 316.84 70.4173 312.602 68.5464C308.402 66.6755 303.248 65.7401 297.139 65.7401H285.914V128.968ZM481.854 82.6925H449.553C449.324 80.0198 448.713 77.5953 447.72 75.419C446.765 73.2427 445.429 71.3718 443.711 69.8064C442.031 68.2028 439.988 66.981 437.583 66.141C435.177 65.2628 432.448 64.8238 429.393 64.8238C424.048 64.8238 419.523 66.1219 415.82 68.7182C412.154 71.3145 409.367 75.0372 407.458 79.8862C405.587 84.7352 404.652 90.5578 404.652 97.354C404.652 104.532 405.606 110.546 407.515 115.395C409.463 120.205 412.269 123.833 415.934 126.276C419.6 128.682 424.01 129.884 429.164 129.884C432.104 129.884 434.738 129.521 437.067 128.796C439.396 128.032 441.42 126.944 443.138 125.532C444.856 124.119 446.25 122.42 447.319 120.434C448.426 118.411 449.171 116.139 449.553 113.619L481.854 113.848C481.472 118.812 480.078 123.871 477.673 129.025C475.268 134.141 471.85 138.876 467.421 143.228C463.031 147.543 457.59 151.017 451.099 153.652C444.608 156.286 437.067 157.604 428.477 157.604C417.71 157.604 408.05 155.294 399.497 150.674C390.983 146.054 384.244 139.258 379.28 130.285C374.355 121.313 371.892 110.336 371.892 97.354C371.892 84.2961 374.412 73.2999 379.452 64.3656C384.492 55.3931 391.288 48.6159 399.841 44.0342C408.394 39.4143 417.939 37.1043 428.477 37.1043C435.884 37.1043 442.699 38.1161 448.923 40.1397C455.146 42.1633 460.606 45.1224 465.302 49.0168C469.999 52.8731 473.778 57.6266 476.642 63.2774C479.506 68.9282 481.243 75.3999 481.854 82.6925ZM496.301 38.708H535.932L563.194 105.143H564.568L591.829 38.708H631.461V156H600.306V88.1905H599.389L573.273 155.084H554.488L528.373 87.7324H527.456V156H496.301V38.708Z" fill="white"/>
<g clip-path="url(#clip0_429_263)">
<path d="M169.555 190.847C167.807 190.85 166.075 190.508 164.459 189.839C162.844 189.171 161.377 188.189 160.142 186.951L90.4807 117.29C87.87 114.908 86.3113 111.588 86.1468 108.058C85.9823 104.528 87.2255 101.077 89.6035 98.4626C91.9814 95.8485 95.2996 94.2849 98.8294 94.1154C102.359 93.9458 105.812 95.184 108.43 97.5582C108.738 97.839 109.04 98.1408 109.321 98.4497L178.975 168.104C180.826 169.97 182.084 172.341 182.592 174.92C183.1 177.499 182.834 180.171 181.828 182.599C180.823 185.028 179.122 187.105 176.939 188.57C174.757 190.034 172.19 190.822 169.562 190.833L169.555 190.847Z" fill="#00C6FF"/>
<path d="M88.8385 181.862C137.903 181.862 177.677 142.088 177.677 93.0237C177.677 43.9596 137.903 4.18524 88.8385 4.18524C39.7743 4.18524 3.05176e-05 43.9596 3.05176e-05 93.0237C3.05176e-05 142.088 39.7743 181.862 88.8385 181.862Z" fill="#00C6FF"/>
<path d="M88.8388 159.547C125.579 159.547 155.362 129.764 155.362 93.0236C155.362 56.2837 125.579 26.5001 88.8388 26.5001C52.0988 26.5001 22.3152 56.2837 22.3152 93.0236C22.3152 129.764 52.0988 159.547 88.8388 159.547Z" fill="#0058A1"/>
<path d="M74.1397 109.828C72.3545 109.828 70.6426 109.118 69.3805 107.856L49.5294 87.9978C48.2705 86.7381 47.5633 85.03 47.5633 83.2491C47.5633 81.4682 48.2705 79.7601 49.5294 78.5004L69.3805 58.6423C70.6505 57.4183 72.3502 56.7417 74.114 56.758C75.8777 56.7742 77.5647 57.4821 78.8119 58.7293C80.0591 59.9766 80.767 61.6635 80.7833 63.4273C80.7995 65.191 80.1229 66.8907 78.8989 68.1607L63.8 83.2526L78.8989 98.3515C79.84 99.2929 80.4809 100.492 80.7405 101.798C81.0001 103.103 80.8668 104.457 80.3574 105.687C79.848 106.916 78.9855 107.968 77.8788 108.707C76.772 109.447 75.4709 109.842 74.1397 109.842V109.828Z" fill="white"/>
<path d="M103.53 129.385C102.201 129.38 100.902 128.982 99.799 128.241C98.6955 127.499 97.8361 126.448 97.3294 125.219C96.8226 123.99 96.6911 122.639 96.9514 121.335C97.2117 120.031 97.8521 118.834 98.792 117.894L113.891 102.802L98.792 87.7029C97.568 86.4329 96.8913 84.7332 96.9076 82.9694C96.9239 81.2057 97.6317 79.5188 98.879 78.2715C100.126 77.0243 101.813 76.3164 103.577 76.3002C105.341 76.2839 107.04 76.9605 108.31 78.1845L128.161 98.0426C128.786 98.6671 129.282 99.4085 129.62 100.224C129.958 101.04 130.132 101.915 130.132 102.798C130.132 103.682 129.958 104.556 129.62 105.372C129.282 106.188 128.786 106.93 128.161 107.554L108.31 127.405C107.684 128.035 106.939 128.534 106.119 128.874C105.298 129.214 104.418 129.387 103.53 129.385Z" fill="white"/>
</g>
<defs>
<clipPath id="clip0_429_263">
<rect width="182.843" height="186.662" fill="white" transform="translate(3.05176e-05 4.18524)"/>
</clipPath>
</defs>
</svg>
